<?xml version="1.0" encoding="UTF-8"?>
<svg id="Layer_2" data-name="Layer 2" xmlns="http://www.w3.org/2000/svg" viewBox="0 0 76.73 64.79">
  <defs>
    <style>
      .cls-1 {
        fill: #4d4d4d;
      }

      .cls-2 {
        fill: #333;
      }

      .cls-3 {
        fill: #1a1a1a;
      }

      .cls-4 {
        fill: none;
        stroke: #fff;
        stroke-linecap: round;
        stroke-miterlimit: 10;
        stroke-width: 1.75px;
      }
    </style>
  </defs>
  <g id="Layer_1-2" data-name="Layer 1">
    <path class="cls-2" d="M76.73,3.16v10.32c-3.67,1.94-9.84-.32-12.92-6.75.57-.42,1.14-.85,1.7-1.27,2.45-1.82,4.9-3.63,7.35-5.46,1.28,1.06,2.57,2.11,3.86,3.16Z"/>
    <path class="cls-2" d="M49.13,33.46c0,6.26-4.73,11.39-10.72,11.8-.26.01-.5.03-.76.03-.33,0-.68-.01-1-.05-1.32-.12-2.58-.46-3.73-.99,1.6-2.44,3.23-4.93,4.85-7.42,1.19-1.85,2.39-3.69,3.55-5.52,1.4-2.18,2.78-4.36,4.13-6.51,1.4,1.33,2.48,3.03,3.09,4.93.37,1.18.59,2.44.59,3.75Z"/>
    <polygon class="cls-2" points="12.4 3.44 6.58 3.44 3.66 5.96 6.58 8.49 12.4 8.49 15.32 5.96 12.4 3.44"/>
    <polygon class="cls-3" points="5.06 4.59 11.52 5.42 9.68 7.07 4.34 6.82 4.09 5.42 5.06 4.59"/>
    <path class="cls-3" d="M75.03,5.46l-.97,3.5c-3.34-.88-6.67-1.76-10.01-2.63.77-.56,1.54-1.12,2.32-1.69,2.89.27,5.77.55,8.66.82Z"/>
    <path class="cls-3" d="M44.9,24.78l1.24.71c.15.17.3.34.45.54.17.22.33.43.46.63-4.11,5.38-8.22,10.75-12.33,16.13l10.17-18.01Z"/>
    <path d="M76.73,5.46v59.33h-14.18c-.04-6.61-.05-13.25-.04-19.96.03-7.52.08-14.97.18-22.35-4.86-.05-9.71-.09-14.56-.13-.26.4-.51.81-.76,1.21-.34.54-.61.97-.77,1.22-3.94,6.19-5.9,9.29-7.68,12.04-1.89,2.93-3.92,6.03-4.85,7.42-.58.87-1.15,1.74-1.72,2.6-.29.45-.59.9-.88,1.35-.29-.46-.58-.91-.87-1.37-3.3-5.19-6.6-10.37-9.9-15.56-.9-1.4-1.78-2.79-2.67-4.19C12.02,39.63,6,52.21,0,64.79V5.46h19.44c3.92,5.92,7.87,11.84,11.8,17.76.19.28.37.57.56.85.1.16.21.3.31.46.21-.37.42-.77.63-1.14.03-.04.04-.07.06-.11,3.33-6.01,6.68-12,10.02-18.01,7.23.05,14.45.12,21.69.18h12.22Z"/>
    <path class="cls-4" d="M42.45,41.48c.72-.48,2.13-1.56,3.16-3.48,1.1-2.06,1.16-3.98,1.13-4.86"/>
    <path class="cls-4" d="M39.45,42.62l.4-.06"/>
    <path class="cls-1" d="M76.73,3.16v10.32c-3.67,1.94-9.84-.32-12.92-6.75.57-.42,1.14-.85,1.7-1.27,2.45-1.82,4.9-3.63,7.35-5.46,1.28,1.06,2.57,2.11,3.86,3.16Z"/>
    <path class="cls-1" d="M49.13,33.46c0,6.26-4.73,11.39-10.72,11.8-.26.01-.5.03-.76.03-.33,0-.68-.01-1-.05-1.32-.12-2.58-.46-3.73-.99,1.6-2.44,3.23-4.93,4.85-7.42,1.19-1.85,2.39-3.69,3.55-5.52,1.4-2.18,2.78-4.36,4.13-6.51,1.4,1.33,2.48,3.03,3.09,4.93.37,1.18.59,2.44.59,3.75Z"/>
    <polygon class="cls-1" points="12.4 3.44 6.58 3.44 3.66 5.96 6.58 8.49 12.4 8.49 15.32 5.96 12.4 3.44"/>
    <polygon class="cls-2" points="5.06 4.59 11.52 5.42 9.68 7.07 4.34 6.82 4.09 5.42 5.06 4.59"/>
    <path class="cls-2" d="M75.03,5.46l-.97,3.5c-3.34-.88-6.67-1.76-10.01-2.63.77-.56,1.54-1.12,2.32-1.69,2.89.27,5.77.55,8.66.82Z"/>
    <path class="cls-2" d="M44.9,24.78l1.24.71c.15.17.3.34.45.54.17.22.33.43.46.63-4.11,5.38-8.22,10.75-12.33,16.13l10.17-18.01Z"/>
    <path class="cls-3" d="M76.73,5.46v59.33h-14.18c-.04-6.61-.05-13.25-.04-19.96.03-7.52.08-14.97.18-22.35-4.86-.05-9.71-.09-14.56-.13-.26.4-.51.81-.76,1.21-.34.54-.61.97-.77,1.22-3.94,6.19-5.9,9.29-7.68,12.04-1.89,2.93-3.92,6.03-4.85,7.42-.58.87-1.15,1.74-1.72,2.6-.29.45-.59.9-.88,1.35-.29-.46-.58-.91-.87-1.37-3.3-5.19-6.6-10.37-9.9-15.56-.9-1.4-1.78-2.79-2.67-4.19C12.02,39.63,6,52.21,0,64.79V5.46h19.44c3.92,5.92,7.87,11.84,11.8,17.76.19.28.37.57.56.85.1.16.21.3.31.46.21-.37.42-.77.63-1.14.03-.04.04-.07.06-.11,3.33-6.01,6.68-12,10.02-18.01,7.23.05,14.45.12,21.69.18h12.22Z"/>
    <path class="cls-4" d="M42.45,41.48c.72-.48,2.13-1.56,3.16-3.48,1.1-2.06,1.16-3.98,1.13-4.86"/>
    <path class="cls-4" d="M39.45,42.62l.4-.06"/>
  </g>
</svg>